<svg viewBox="0 0 900 600" xmlns="http://www.w3.org/2000/svg">
  <!-- Background -->
  <rect width="900" height="600" fill="#f5f5f5" />
  
  <!-- Title -->
  <text x="450" y="40" font-family="Arial" font-size="24" font-weight="bold" text-anchor="middle">Cache Augmented Generation (CAG) System Workflow</text>
  
  <!-- Start -->
  <circle cx="450" cy="90" r="25" fill="#4caf50" stroke="#2e7d32" stroke-width="2" />
  <text x="450" y="95" font-family="Arial" font-size="14" font-weight="bold" fill="white" text-anchor="middle">Start</text>
  
  <!-- Query Received -->
  <rect x="375" y="140" width="150" height="40" rx="5" fill="#bbdefb" stroke="#1565c0" stroke-width="2" />
  <text x="450" y="165" font-family="Arial" font-size="14" text-anchor="middle">Query Received</text>
  
  <!-- Decision: Cache Hit? -->
  <polygon points="450,200 525,240 450,280 375,240" fill="#fff3e0" stroke="#e65100" stroke-width="2" />
  <text x="450" y="245" font-family="Arial" font-size="14" text-anchor="middle">Cache Hit?</text>
  
  <!-- Cache Hit Path -->
  <rect x="600" y="220" width="150" height="40" rx="5" fill="#e1bee7" stroke="#6a1b9a" stroke-width="2" />
  <text x="675" y="245" font-family="Arial" font-size="14" text-anchor="middle">Retrieve from Cache</text>
  
  <!-- RAG Cache Miss Path -->
  <!-- Decision: Topic Match? -->
  <polygon points="450,320 525,360 450,400 375,360" fill="#fff3e0" stroke="#e65100" stroke-width="2" />
  <text x="450" y="365" font-family="Arial" font-size="14" text-anchor="middle">Preloaded Topic?</text>
  
  <!-- Topic Match Path -->
  <rect x="600" y="340" width="150" height="40" rx="5" fill="#e1bee7" stroke="#6a1b9a" stroke-width="2" />
  <text x="675" y="365" font-family="Arial" font-size="14" text-anchor="middle">Use Preloaded Data</text>
  
  <!-- Standard RAG Path -->
  <!-- Query Transformation -->
  <rect x="375" y="420" width="150" height="40" rx="5" fill="#c8e6c9" stroke="#2e7d32" stroke-width="2" />
  <text x="450" y="445" font-family="Arial" font-size="14" text-anchor="middle">Query Transformation</text>
  
  <!-- Vector Search -->
  <rect x="375" y="480" width="150" height="40" rx="5" fill="#b2ebf2" stroke="#006064" stroke-width="2" />
  <text x="450" y="505" font-family="Arial" font-size="14" text-anchor="middle">Vector Search</text>
  
  <!-- Context Generation -->
  <rect x="375" y="540" width="150" height="40" rx="5" fill="#ffe0b2" stroke="#e65100" stroke-width="2" />
  <text x="450" y="565" font-family="Arial" font-size="14" text-anchor="middle">LLM Generation</text>
  
  <!-- Store in Cache -->
  <rect x="150" y="340" width="150" height="40" rx="5" fill="#e1bee7" stroke="#6a1b9a" stroke-width="2" />
  <text x="225" y="365" font-family="Arial" font-size="14" text-anchor="middle">Store in Cache</text>
  
  <!-- Response to User -->
  <rect x="150" y="220" width="150" height="40" rx="5" fill="#ffcdd2" stroke="#b71c1c" stroke-width="2" />
  <text x="225" y="245" font-family="Arial" font-size="14" text-anchor="middle">Response to User</text>
  
  <!-- Connections -->
  <!-- Start to Query -->
  <line x1="450" y1="115" x2="450" y2="140" stroke="#333" stroke-width="2" />
  <polygon points="445,130 450,140 455,130" fill="#333" />
  
  <!-- Query to Decision -->
  <line x1="450" y1="180" x2="450" y2="200" stroke="#333" stroke-width="2" />
  <polygon points="445,190 450,200 455,190" fill="#333" />
  
  <!-- Decision to Cache Hit -->
  <line x1="525" y1="240" x2="600" y2="240" stroke="#333" stroke-width="2" />
  <polygon points="590,235 600,240 590,245" fill="#333" />
  <text x="545" y="230" font-family="Arial" font-size="12" fill="#333">Yes</text>
  
  <!-- Decision to Topic Decision -->
  <line x1="450" y1="280" x2="450" y2="320" stroke="#333" stroke-width="2" />
  <polygon points="445,310 450,320 455,310" fill="#333" />
  <text x="465" y="300" font-family="Arial" font-size="12" fill="#333">No</text>
  
  <!-- Topic Decision to Topic Match -->
  <line x1="525" y1="360" x2="600" y2="360" stroke="#333" stroke-width="2" />
  <polygon points="590,355 600,360 590,365" fill="#333" />
  <text x="545" y="350" font-family="Arial" font-size="12" fill="#333">Yes</text>
  
  <!-- Topic Decision to Query Transformation -->
  <line x1="450" y1="400" x2="450" y2="420" stroke="#333" stroke-width="2" />
  <polygon points="445,410 450,420 455,410" fill="#333" />
  <text x="465" y="410" font-family="Arial" font-size="12" fill="#333">No</text>
  
  <!-- Query Transformation to Vector Search -->
  <line x1="450" y1="460" x2="450" y2="480" stroke="#333" stroke-width="2" />
  <polygon points="445,470 450,480 455,470" fill="#333" />
  
  <!-- Vector Search to Context Generation -->
  <line x1="450" y1="520" x2="450" y2="540" stroke="#333" stroke-width="2" />
  <polygon points="445,530 450,540 455,530" fill="#333" />
  
  <!-- Context Generation to Store in Cache -->
  <line x1="375" y1="560" x2="225" y2="380" stroke="#333" stroke-width="2" />
  <polygon points="231,386 225,380 219,374" fill="#333" />
  
  <!-- Cache Hit to Response -->
  <line x1="600" y1="240" x2="300" y2="240" stroke="#333" stroke-width="2" />
  <polygon points="310,235 300,240 310,245" fill="#333" />
  
  <!-- Topic Match to Response -->
  <line x1="675" y1="340" x2="675" y2="240" stroke="#333" stroke-width="2" />
  <line x1="675" y1="240" x2="300" y2="240" stroke="#333" stroke-width="2" />
  <polygon points="310,235 300,240 310,245" fill="#333" />
  
  <!-- Store in Cache to Response -->
  <line x1="225" y1="340" x2="225" y2="260" stroke="#333" stroke-width="2" />
  <polygon points="220,270 225,260 230,270" fill="#333" />
  
  <!-- Annotations -->
  <rect x="600" y="120" width="200" height="70" rx="5" fill="#e3f2fd" stroke="#1565c0" stroke-width="1" opacity="0.9" />
  <text x="700" y="140" font-family="Arial" font-size="12" font-weight="bold" text-anchor="middle">Cache Hit</text>
  <text x="700" y="160" font-family="Arial" font-size="10" text-anchor="middle">Immediate response without</text>
  <text x="700" y="175" font-family="Arial" font-size="10" text-anchor="middle">LLM or vector DB lookups</text>
  
  <rect x="600" y="400" width="200" height="70" rx="5" fill="#e8f5e9" stroke="#2e7d32" stroke-width="1" opacity="0.9" />
  <text x="700" y="420" font-family="Arial" font-size="12" font-weight="bold" text-anchor="middle">Preloaded Topic</text>
  <text x="700" y="440" font-family="Arial" font-size="10" text-anchor="middle">Semantic matching finds similar</text>
  <text x="700" y="455" font-family="Arial" font-size="10" text-anchor="middle">query to precomputed answers</text>
  
  <rect x="150" y="420" width="200" height="100" rx="5" fill="#fff3e0" stroke="#e65100" stroke-width="1" opacity="0.9" />
  <text x="250" y="440" font-family="Arial" font-size="12" font-weight="bold" text-anchor="middle">Standard RAG Process</text>
  <text x="250" y="460" font-family="Arial" font-size="10" text-anchor="middle">1. Transform query for better retrieval</text>
  <text x="250" y="475" font-family="Arial" font-size="10" text-anchor="middle">2. Search vector DB for relevant context</text>
  <text x="250" y="490" font-family="Arial" font-size="10" text-anchor="middle">3. Generate response with LLM</text>
  <text x="250" y="505" font-family="Arial" font-size="10" text-anchor="middle">4. Store result in cache for future use</text>
  
  <!-- Legend -->
  <rect x="50" y="520" width="230" height="70" rx="5" fill="white" stroke="#333" stroke-width="1" />
  <text x="165" y="535" font-family="Arial" font-size="14" font-weight="bold" text-anchor="middle">Legend</text>
  
  <rect x="60" y="545" width="15" height="15" rx="2" fill="#e1bee7" stroke="#6a1b9a" stroke-width="1" />
  <text x="180" y="558" font-family="Arial" font-size="12" text-anchor="middle">Caching Operations</text>
  
  <rect x="60" y="570" width="15" height="15" rx="2" fill="#c8e6c9" stroke="#2e7d32" stroke-width="1" />
  <text x="180" y="583" font-family="Arial" font-size="12" text-anchor="middle">Standard RAG Operations</text>
</svg>
