<?xml version="1.0" encoding="UTF-8"?>
<svg viewBox="0 0 900 600" xmlns="http://www.w3.org/2000/svg">
  <!-- Background -->
  <rect width="900" height="600" fill="#f8f9fa" rx="10" ry="10"/>
  
  <!-- Title -->
  <text x="450" y="40" font-family="Arial" font-size="24" font-weight="bold" text-anchor="middle" fill="#333">CI/CD Pipeline with Self-Hosted GitHub Runner</text>
  
  <!-- VS Code - Development Environment -->
  <rect x="50" y="100" width="150" height="120" fill="#2C2C32" rx="5" ry="5"/>
  <rect x="60" y="110" width="130" height="90" fill="#1E1E1E" rx="3" ry="3"/>
  <text x="125" y="160" font-family="Arial" font-size="16" font-weight="bold" text-anchor="middle" fill="#fff">VS Code</text>
  <text x="125" y="180" font-family="Arial" font-size="12" text-anchor="middle" fill="#75BEFF">React Development</text>
  <text x="125" y="240" font-family="Arial" font-size="14" font-weight="bold" text-anchor="middle" fill="#333">Local Development</text>
  
  <!-- GitHub Repository -->
  <rect x="300" y="100" width="150" height="120" fill="#f5f5f5" rx="5" ry="5" stroke="#ddd" stroke-width="1"/>
  <circle cx="375" cy="150" r="40" fill="#333"/>
  <path d="M375 120 Q350 150 375 180 Q400 150 375 120" fill="#fff"/>
  <text x="375" y="240" font-family="Arial" font-size="14" font-weight="bold" text-anchor="middle" fill="#333">GitHub Repository</text>
  
  <!-- Rocky Linux Server Box -->
  <rect x="500" y="90" width="350" height="460" fill="#f0f0f0" rx="5" ry="5" stroke="#ddd" stroke-width="2"/>
  <text x="675" y="120" font-family="Arial" font-size="18" font-weight="bold" text-anchor="middle" fill="#333">Rocky Linux 9.5 Server</text>
  
  <!-- GitHub Runner -->
  <rect x="550" y="150" width="250" height="130" fill="#2088FF" rx="5" ry="5"/>
  <rect x="560" y="160" width="230" height="100" fill="#fff" rx="3" ry="3"/>
  <text x="675" y="190" font-family="Arial" font-size="16" font-weight="bold" text-anchor="middle" fill="#333">GitHub Actions Runner</text>
  <text x="675" y="210" font-family="Arial" font-size="12" text-anchor="middle" fill="#333">Self-Hosted</text>
  <text x="675" y="230" font-family="Arial" font-size="12" text-anchor="middle" fill="#333">Build and Deployment Agent</text>
  <text x="675" y="300" font-family="Arial" font-size="14" font-weight="bold" text-anchor="middle" fill="#333">Polling for Jobs</text>
  
  <!-- Build Process -->
  <rect x="550" y="320" width="250" height="100" fill="#FFA726" rx="5" ry="5"/>
  <rect x="560" y="330" width="230" height="70" fill="#fff" rx="3" ry="3"/>
  <text x="675" y="360" font-family="Arial" font-size="16" font-weight="bold" text-anchor="middle" fill="#333">Build Process</text>
  <text x="675" y="380" font-family="Arial" font-size="12" text-anchor="middle" fill="#333">npm build with NODE_OPTIONS</text>
  <text x="675" y="440" font-family="Arial" font-size="14" font-weight="bold" text-anchor="middle" fill="#333">Local Build</text>
  
  <!-- Nginx Web Server -->
  <rect x="550" y="460" width="250" height="70" fill="#009639" rx="5" ry="5"/>
  <text x="675" y="500" font-family="Arial" font-size="16" font-weight="bold" text-anchor="middle" fill="#fff">Nginx Web Server</text>
  <text x="675" y="520" font-family="Arial" font-size="12" text-anchor="middle" fill="#fff">/usr/share/nginx/react</text>
  
  <!-- Legend - Moved Up -->
  <rect x="50" y="460" width="400" height="60" fill="#fff" rx="5" ry="5" stroke="#ddd" stroke-width="1"/>
  <text x="70" y="480" font-family="Arial" font-size="14" font-weight="bold" fill="#333">CI/CD Process Flow:</text>
  <text x="90" y="500" font-family="Arial" font-size="12" fill="#666">Code to GitHub to Self-Hosted Runner to Build to Nginx to Users</text>
  
  <!-- Process Flow Arrows -->
  <!-- VS Code to GitHub Repository -->
  <polygon points="210,160 290,160 290,155 300,160 290,165 290,160" fill="#666"/>
  <line x1="200" y1="160" x2="290" y2="160" stroke="#666" stroke-width="2"/>
  <text x="250" y="150" font-family="Arial" font-size="12" text-anchor="middle" fill="#666">git push</text>
  
  <!-- GitHub Repository to GitHub Runner -->
  <polygon points="460,160 540,160 540,155 550,160 540,165 540,160" fill="#666"/>
  <line x1="450" y1="160" x2="540" y2="160" stroke="#666" stroke-width="2"/>
  <text x="500" y="150" font-family="Arial" font-size="12" text-anchor="middle" fill="#666">notify runner</text>
  
  <!-- GitHub Runner Polling -->
  <path d="M450,190 C480,190 500,200 500,230 C500,260 480,270 450,270" fill="none" stroke="#666" stroke-width="2" stroke-dasharray="5,5"/>
  <polygon points="450,270 460,265 460,275" fill="#666"/>
  <text x="480" y="240" font-family="Arial" font-size="12" text-anchor="middle" fill="#666">polling</text>
  
  <!-- GitHub Runner to Build Process -->
  <polygon points="675,290 675,310 670,310 675,320 680,310 675,310" fill="#666"/>
  <line x1="675" y1="280" x2="675" y2="310" stroke="#666" stroke-width="2"/>
  <text x="775" y="305" font-family="Arial" font-size="12" text-anchor="middle" fill="#666">execute workflow</text>
  
  <!-- Build Process to Nginx -->
  <polygon points="675,430 675,450 670,450 675,460 680,450 675,450" fill="#666"/>
  <line x1="675" y1="420" x2="675" y2="450" stroke="#666" stroke-width="2"/>
  <text x="775" y="440" font-family="Arial" font-size="12" text-anchor="middle" fill="#666">copy build files</text>
  
  <!-- User Access to Nginx -->
  <path d="M675,540 L675,560 L400,560 L400,500" fill="none" stroke="#666" stroke-width="2"/>
  <polygon points="400,500 395,510 405,510" fill="#666"/>
  <text x="500" y="580" font-family="Arial" font-size="14" text-anchor="middle" fill="#666">Users access the React application</text>
  
  <!-- GitHub Actions Workflow File -->
  <rect x="300" y="320" width="150" height="100" fill="#E0E0E0" rx="5" ry="5" stroke="#ddd" stroke-width="1"/>
  <text x="375" y="350" font-family="Arial" font-size="14" font-weight="bold" text-anchor="middle" fill="#333">.github/workflows</text>
  <text x="375" y="370" font-family="Arial" font-size="12" text-anchor="middle" fill="#333">deploy.yml</text>
  <text x="375" y="390" font-family="Arial" font-size="12" text-anchor="middle" fill="#333">Workflow Configuration</text>
  
  <!-- GitHub Actions to Workflow File -->
  <line x1="375" y1="230" x2="375" y2="310" stroke="#666" stroke-width="2"/>
  <polygon points="375,310 370,300 380,300" fill="#666"/>
  <text x="395" y="275" font-family="Arial" font-size="12" text-anchor="middle" fill="#666">contains</text>
  
  <!-- Workflow File to GitHub Runner -->
  <line x1="450" y1="370" x2="540" y2="370" stroke="#666" stroke-width="2"/>
  <polygon points="540,370 530,365 530,375" fill="#666"/>
  <text x="495" y="360" font-family="Arial" font-size="12" text-anchor="middle" fill="#666">defines jobs</text>
</svg>