<svg viewBox="0 0 800 600" xmlns="http://www.w3.org/2000/svg">
  <!-- Background -->
  <rect width="800" height="600" fill="#f5f5f5" rx="10" ry="10"/>
  
  <!-- Title -->
  <text x="400" y="40" font-family="Arial, sans-serif" font-size="24" font-weight="bold" text-anchor="middle" fill="#333">Context Augmented Generation (CAG) System Architecture</text>
  
  <!-- Client Layer -->
  <rect x="50" y="80" width="700" height="80" rx="10" ry="10" fill="#e1f5fe" stroke="#0288d1" stroke-width="2"/>
  <text x="400" y="115" font-family="Arial, sans-serif" font-size="18" font-weight="bold" text-anchor="middle" fill="#0288d1">Client Layer</text>
  
  <!-- Client Components -->
  <rect x="100" y="90" width="140" height="60" rx="5" ry="5" fill="#ffffff" stroke="#0288d1" stroke-width="1"/>
  <text x="170" y="125" font-family="Arial, sans-serif" font-size="14" text-anchor="middle" fill="#333">Web UI Interface</text>
  
  <rect x="330" y="90" width="140" height="60" rx="5" ry="5" fill="#ffffff" stroke="#0288d1" stroke-width="1"/>
  <text x="400" y="125" font-family="Arial, sans-serif" font-size="14" text-anchor="middle" fill="#333">API Clients</text>
  
  <rect x="560" y="90" width="140" height="60" rx="5" ry="5" fill="#ffffff" stroke="#0288d1" stroke-width="1"/>
  <text x="630" y="125" font-family="Arial, sans-serif" font-size="14" text-anchor="middle" fill="#333">Command Line Tools</text>

  <!-- API/Server Layer -->
  <rect x="50" y="180" width="700" height="80" rx="10" ry="10" fill="#e8f5e9" stroke="#388e3c" stroke-width="2"/>
  <text x="400" y="215" font-family="Arial, sans-serif" font-size="18" font-weight="bold" text-anchor="middle" fill="#388e3c">API/Server Layer (Flask)</text>
  
  <!-- Server Components -->
  <rect x="100" y="190" width="110" height="60" rx="5" ry="5" fill="#ffffff" stroke="#388e3c" stroke-width="1"/>
  <text x="155" y="225" font-family="Arial, sans-serif" font-size="12" text-anchor="middle" fill="#333">Query Endpoint</text>
  
  <rect x="230" y="190" width="110" height="60" rx="5" ry="5" fill="#ffffff" stroke="#388e3c" stroke-width="1"/>
  <text x="285" y="225" font-family="Arial, sans-serif" font-size="12" text-anchor="middle" fill="#333">Status Endpoint</text>
  
  <rect x="360" y="190" width="110" height="60" rx="5" ry="5" fill="#ffffff" stroke="#388e3c" stroke-width="1"/>
  <text x="415" y="225" font-family="Arial, sans-serif" font-size="12" text-anchor="middle" fill="#333">Session Mgmt</text>
  
  <rect x="490" y="190" width="110" height="60" rx="5" ry="5" fill="#ffffff" stroke="#388e3c" stroke-width="1"/>
  <text x="545" y="225" font-family="Arial, sans-serif" font-size="12" text-anchor="middle" fill="#333">Model Listing</text>
  
  <rect x="620" y="190" width="110" height="60" rx="5" ry="5" fill="#ffffff" stroke="#388e3c" stroke-width="1"/>
  <text x="675" y="225" font-family="Arial, sans-serif" font-size="12" text-anchor="middle" fill="#333">Index Rebuild</text>

  <!-- Context Augmentation Layer -->
  <rect x="50" y="280" width="700" height="100" rx="10" ry="10" fill="#fff3e0" stroke="#f57c00" stroke-width="2"/>
  <text x="400" y="315" font-family="Arial, sans-serif" font-size="18" font-weight="bold" text-anchor="middle" fill="#f57c00">Context Augmentation Layer</text>
  
  <!-- Context Components -->
  <rect x="80" y="330" width="140" height="40" rx="5" ry="5" fill="#ffffff" stroke="#f57c00" stroke-width="1"/>
  <text x="150" y="355" font-family="Arial, sans-serif" font-size="12" text-anchor="middle" fill="#333">Conversation History</text>
  
  <rect x="240" y="330" width="140" height="40" rx="5" ry="5" fill="#ffffff" stroke="#f57c00" stroke-width="1"/>
  <text x="310" y="355" font-family="Arial, sans-serif" font-size="12" text-anchor="middle" fill="#333">Intent Extraction</text>
  
  <rect x="400" y="330" width="140" height="40" rx="5" ry="5" fill="#ffffff" stroke="#f57c00" stroke-width="1"/>
  <text x="470" y="355" font-family="Arial, sans-serif" font-size="12" text-anchor="middle" fill="#333">Query Variations</text>
  
  <rect x="560" y="330" width="140" height="40" rx="5" ry="5" fill="#ffffff" stroke="#f57c00" stroke-width="1"/>
  <text x="630" y="355" font-family="Arial, sans-serif" font-size="12" text-anchor="middle" fill="#333">Hybrid Retrieval</text>

  <!-- Retrieval Layer -->
  <rect x="50" y="400" width="325" height="160" rx="10" ry="10" fill="#f3e5f5" stroke="#7b1fa2" stroke-width="2"/>
  <text x="212.5" y="430" font-family="Arial, sans-serif" font-size="18" font-weight="bold" text-anchor="middle" fill="#7b1fa2">Retrieval Layer</text>
  
  <!-- Retrieval Components -->
  <rect x="70" y="450" width="135" height="40" rx="5" ry="5" fill="#ffffff" stroke="#7b1fa2" stroke-width="1"/>
  <text x="137.5" y="475" font-family="Arial, sans-serif" font-size="12" text-anchor="middle" fill="#333">Vector Index</text>
  
  <rect x="220" y="450" width="135" height="40" rx="5" ry="5" fill="#ffffff" stroke="#7b1fa2" stroke-width="1"/>
  <text x="287.5" y="475" font-family="Arial, sans-serif" font-size="12" text-anchor="middle" fill="#333">BGE-M3 Embeddings</text>
  
  <rect x="70" y="505" width="285" height="40" rx="5" ry="5" fill="#ffffff" stroke="#7b1fa2" stroke-width="1"/>
  <text x="212.5" y="530" font-family="Arial, sans-serif" font-size="12" text-anchor="middle" fill="#333">Query Fusion Retriever</text>

  <!-- Generation Layer -->
  <rect x="425" y="400" width="325" height="160" rx="10" ry="10" fill="#e0f2f1" stroke="#00796b" stroke-width="2"/>
  <text x="587.5" y="430" font-family="Arial, sans-serif" font-size="18" font-weight="bold" text-anchor="middle" fill="#00796b">Generation Layer</text>
  
  <!-- Generation Components -->
  <rect x="445" y="450" width="285" height="40" rx="5" ry="5" fill="#ffffff" stroke="#00796b" stroke-width="1"/>
  <text x="587.5" y="475" font-family="Arial, sans-serif" font-size="12" text-anchor="middle" fill="#333">Ollama LLM Integration</text>
  
  <rect x="445" y="505" width="135" height="40" rx="5" ry="5" fill="#ffffff" stroke="#00796b" stroke-width="1"/>
  <text x="512.5" y="530" font-family="Arial, sans-serif" font-size="12" text-anchor="middle" fill="#333">Response Synthesis</text>
  
  <rect x="595" y="505" width="135" height="40" rx="5" ry="5" fill="#ffffff" stroke="#00796b" stroke-width="1"/>
  <text x="662.5" y="530" font-family="Arial, sans-serif" font-size="12" text-anchor="middle" fill="#333">Context Enhancement</text>

  <!-- Arrows -->
  <!-- Client to Server -->
  <path d="M400,160 L400,180" stroke="#333" stroke-width="2" fill="none" marker-end="url(#arrowhead)"/>
  
  <!-- Server to Context -->
  <path d="M400,260 L400,280" stroke="#333" stroke-width="2" fill="none" marker-end="url(#arrowhead)"/>
  
  <!-- Context to Retrieval & Generation -->
  <path d="M212.5,380 L212.5,400" stroke="#333" stroke-width="2" fill="none" marker-end="url(#arrowhead)"/>
  <path d="M587.5,380 L587.5,400" stroke="#333" stroke-width="2" fill="none" marker-end="url(#arrowhead)"/>
  
  <!-- Retrieval to Generation -->
  <path d="M375,480 L445,480" stroke="#333" stroke-width="2" fill="none" marker-end="url(#arrowhead)"/>
  
  <!-- Arrowhead definition -->
  <defs>
    <marker id="arrowhead" markerWidth="10" markerHeight="7" refX="10" refY="3.5" orient="auto">
      <polygon points="0 0, 10 3.5, 0 7" fill="#333"/>
    </marker>
  </defs>

  <!-- Legend -->
  <rect x="50" y="570" width="700" height="20" rx="5" ry="5" fill="#e0e0e0" stroke="#333" stroke-width="1"/>
  <text x="400" y="585" font-family="Arial, sans-serif" font-size="12" text-anchor="middle" fill="#333">Built on LlamaIndex, Hugging Face Transformers, and Ollama</text>
</svg>
