<svg viewBox="0 0 800 600" xmlns="http://www.w3.org/2000/svg">
  <!-- Background -->
  <rect width="800" height="600" fill="#f8f9fa" rx="10" ry="10"/>
  
  <!-- Title -->
  <text x="400" y="40" font-family="Arial" font-size="24" text-anchor="middle" font-weight="bold" fill="#005C2E">Context Augmented Generation (CAG) System Workflow</text>
  
  <!-- Start node -->
  <circle cx="100" cy="100" r="30" fill="#c8e6c9" stroke="#2e7d32" stroke-width="2"/>
  <text x="100" y="105" font-family="Arial" font-size="14" text-anchor="middle">Start</text>
  
  <!-- User Query -->
  <rect x="50" y="160" width="100" height="50" rx="10" ry="10" fill="#bbdefb" stroke="#1565c0" stroke-width="2"/>
  <text x="100" y="190" font-family="Arial" font-size="14" text-anchor="middle">User Query</text>
  
  <!-- Session Management -->
  <rect x="50" y="240" width="100" height="50" rx="10" ry="10" fill="#bbdefb" stroke="#1565c0" stroke-width="2"/>
  <text x="100" y="265" font-family="Arial" font-size="12" text-anchor="middle">Session</text>
  <text x="100" y="280" font-family="Arial" font-size="12" text-anchor="middle">Management</text>
  
  <!-- Conversation Context -->
  <rect x="180" y="240" width="100" height="50" rx="10" ry="10" fill="#bbdefb" stroke="#1565c0" stroke-width="2"/>
  <text x="230" y="265" font-family="Arial" font-size="12" text-anchor="middle">Conversation</text>
  <text x="230" y="280" font-family="Arial" font-size="12" text-anchor="middle">Context</text>
  
  <!-- Intent Extraction -->
  <rect x="310" y="240" width="100" height="50" rx="10" ry="10" fill="#c5e1a5" stroke="#558b2f" stroke-width="2"/>
  <text x="360" y="265" font-family="Arial" font-size="12" text-anchor="middle">Intent</text>
  <text x="360" y="280" font-family="Arial" font-size="12" text-anchor="middle">Extraction</text>
  
  <!-- Query Variation Generation -->
  <rect x="310" y="320" width="100" height="50" rx="10" ry="10" fill="#c5e1a5" stroke="#558b2f" stroke-width="2"/>
  <text x="360" y="340" font-family="Arial" font-size="11" text-anchor="middle">Query</text>
  <text x="360" y="355" font-family="Arial" font-size="11" text-anchor="middle">Variations</text>
  
  <!-- Decision: Hybrid Retrieval Enabled? -->
  <polygon points="440,345 470,320 500,345 470,370" fill="#ffe0b2" stroke="#e65100" stroke-width="2"/>
  <text x="470" y="347" font-family="Arial" font-size="10" text-anchor="middle">Hybrid</text>
  <text x="470" y="360" font-family="Arial" font-size="10" text-anchor="middle">Retrieval?</text>
  
  <!-- Standard Retrieval -->
  <rect x="530" y="280" width="100" height="40" rx="10" ry="10" fill="#d1c4e9" stroke="#4527a0" stroke-width="2"/>
  <text x="580" y="305" font-family="Arial" font-size="12" text-anchor="middle">Standard</text>
  <text x="580" y="318" font-family="Arial" font-size="11" text-anchor="middle">Retrieval</text>
  
  <!-- Hybrid Retrieval -->
  <rect x="530" y="350" width="100" height="40" rx="10" ry="10" fill="#d1c4e9" stroke="#4527a0" stroke-width="2"/>
  <text x="580" y="375" font-family="Arial" font-size="12" text-anchor="middle">Hybrid</text>
  <text x="580" y="388" font-family="Arial" font-size="11" text-anchor="middle">Retrieval</text>
  
  <!-- Vector Database -->
  <path d="M650 350 C650 370, 750 370, 750 350 L750 330 C750 310, 650 310, 650 330 Z" fill="#d1c4e9" stroke="#4527a0" stroke-width="2"/>
  <path d="M650 330 C650 350, 750 350, 750 330" fill="none" stroke="#4527a0" stroke-width="2"/>
  <text x="700" y="345" font-family="Arial" font-size="14" text-anchor="middle">Vector DB</text>
  
  <!-- Similarity Filtering -->
  <rect x="650" y="400" width="100" height="40" rx="10" ry="10" fill="#d1c4e9" stroke="#4527a0" stroke-width="2"/>
  <text x="700" y="425" font-family="Arial" font-size="12" text-anchor="middle">Similarity</text>
  <text x="700" y="438" font-family="Arial" font-size="11" text-anchor="middle">Filtering</text>
  
  <!-- Response Generation -->
  <rect x="530" y="400" width="100" height="40" rx="10" ry="10" fill="#ffcdd2" stroke="#c62828" stroke-width="2"/>
  <text x="580" y="425" font-family="Arial" font-size="12" text-anchor="middle">Response</text>
  <text x="580" y="438" font-family="Arial" font-size="11" text-anchor="middle">Generation</text>
  
  <!-- Context Enhancement -->
  <rect x="530" y="460" width="100" height="40" rx="10" ry="10" fill="#ffcdd2" stroke="#c62828" stroke-width="2"/>
  <text x="580" y="485" font-family="Arial" font-size="12" text-anchor="middle">Context</text>
  <text x="580" y="498" font-family="Arial" font-size="11" text-anchor="middle">Enhancement</text>
  
  <!-- Update Session -->
  <rect x="310" y="460" width="100" height="40" rx="10" ry="10" fill="#bbdefb" stroke="#1565c0" stroke-width="2"/>
  <text x="360" y="485" font-family="Arial" font-size="12" text-anchor="middle">Update</text>
  <text x="360" y="498" font-family="Arial" font-size="11" text-anchor="middle">Session</text>
  
  <!-- Format Response -->
  <rect x="180" y="460" width="100" height="40" rx="10" ry="10" fill="#ffcdd2" stroke="#c62828" stroke-width="2"/>
  <text x="230" y="485" font-family="Arial" font-size="12" text-anchor="middle">Format</text>
  <text x="230" y="498" font-family="Arial" font-size="11" text-anchor="middle">Response</text>
  
  <!-- End node -->
  <rect x="50" y="460" width="100" height="40" rx="10" ry="10" fill="#ffcdd2" stroke="#c62828" stroke-width="2"/>
  <text x="100" y="485" font-family="Arial" font-size="12" text-anchor="middle">Return</text>
  <text x="100" y="498" font-family="Arial" font-size="11" text-anchor="middle">Response</text>
  
  <!-- Connections -->
  <!-- Start to User Query -->
  <line x1="100" y1="130" x2="100" y2="160" stroke="#424242" stroke-width="2" marker-end="url(#arrowhead)"/>
  
  <!-- User Query to Session Management -->
  <line x1="100" y1="210" x2="100" y2="240" stroke="#424242" stroke-width="2" marker-end="url(#arrowhead)"/>
  
  <!-- Session Management to Conversation Context -->
  <line x1="150" y1="265" x2="180" y2="265" stroke="#424242" stroke-width="2" marker-end="url(#arrowhead)"/>
  
  <!-- Conversation Context to Intent Extraction -->
  <line x1="280" y1="265" x2="310" y2="265" stroke="#424242" stroke-width="2" marker-end="url(#arrowhead)"/>
  
  <!-- Intent Extraction to Query Variation Generation -->
  <line x1="360" y1="290" x2="360" y2="320" stroke="#424242" stroke-width="2" marker-end="url(#arrowhead)"/>
  
  <!-- Query Variation Generation to Decision -->
  <line x1="410" y1="345" x2="440" y2="345" stroke="#424242" stroke-width="2" marker-end="url(#arrowhead)"/>
  
  <!-- Decision to Standard Retrieval (No branch) -->
  <line x1="471" y1="320" x2="471" y2="300" stroke="#424242" stroke-width="2" marker-end="url(#arrowhead)"/>
  <line x1="471" y1="300" x2="530" y2="300" stroke="#424242" stroke-width="2" marker-end="url(#arrowhead)"/>
  <text x="490" y="290" font-family="Arial" font-size="10" fill="#424242">No</text>
  
  <!-- Decision to Hybrid Retrieval (Yes branch) -->
  <line x1="500" y1="345" x2="530" y2="345" x2="530" y2="370" stroke="#424242" stroke-width="2" marker-end="url(#arrowhead)"/>
  <text x="510" y="340" font-family="Arial" font-size="10" fill="#424242">Yes</text>
  
  <!-- Standard Retrieval to Vector DB -->
  <line x1="630" y1="300" x2="700" y2="300" x2="700" y2="310" stroke="#424242" stroke-width="2" marker-end="url(#arrowhead)"/>
  
  <!-- Hybrid Retrieval to Vector DB -->
  <line x1="630" y1="370" x2="660" y2="370" x2="660" y2="350" stroke="#424242" stroke-width="2" marker-end="url(#arrowhead)"/>
  
  <!-- Vector DB to Similarity Filtering -->
  <line x1="700" y1="370" x2="700" y2="400" stroke="#424242" stroke-width="2" marker-end="url(#arrowhead)"/>
  
  <!-- Similarity Filtering to Response Generation -->
  <line x1="650" y1="420" x2="630" y2="420" stroke="#424242" stroke-width="2" marker-end="url(#arrowhead)"/>
  
  <!-- Response Generation to Context Enhancement -->
  <line x1="580" y1="440" x2="580" y2="460" stroke="#424242" stroke-width="2" marker-end="url(#arrowhead)"/>
  
  <!-- Context Enhancement to Update Session -->
  <line x1="530" y1="480" x2="410" y2="480" stroke="#424242" stroke-width="2" marker-end="url(#arrowhead)"/>
  
  <!-- Update Session to Format Response -->
  <line x1="310" y1="480" x2="280" y2="480" stroke="#424242" stroke-width="2" marker-end="url(#arrowhead)"/>
  
  <!-- Format Response to Return Response -->
  <line x1="180" y1="480" x2="150" y2="480" stroke="#424242" stroke-width="2" marker-end="url(#arrowhead)"/>
  
  <!-- Arrowhead definition -->
  <defs>
    <marker id="arrowhead" markerWidth="10" markerHeight="7" refX="9" refY="3.5" orient="auto">
      <polygon points="0 0, 10 3.5, 0 7" fill="#424242"/>
    </marker>
  </defs>
  
  <!-- Feature Highlights -->
  <rect x="50" y="520" width="700" height="60" rx="5" ry="5" fill="#f5f5f5" stroke="#9e9e9e" stroke-width="1"/>
  <text x="400" y="540" font-family="Arial" font-size="14" text-anchor="middle" font-weight="bold">CAG Key Process Innovations</text>
  <text x="150" y="560" font-family="Arial" font-size="12" text-anchor="middle" fill="#1565c0">Session Context</text>
  <text x="300" y="560" font-family="Arial" font-size="12" text-anchor="middle" fill="#558b2f">Intent Understanding</text>
  <text x="450" y="560" font-family="Arial" font-size="12" text-anchor="middle" fill="#4527a0">Hybrid Retrieval</text>
  <text x="600" y="560" font-family="Arial" font-size="12" text-anchor="middle" fill="#c62828">Contextual Enhancement</text>
  
  <!-- Legend -->
  <rect x="640" y="100" width="140" height="160" rx="5" ry="5" fill="#f5f5f5" stroke="#9e9e9e" stroke-width="1"/>
  <text x="710" y="120" font-family="Arial" font-size="12" text-anchor="middle" font-weight="bold">Legend</text>
  
  <rect x="650" y="130" width="20" height="20" rx="3" ry="3" fill="#bbdefb" stroke="#1565c0" stroke-width="1"/>
  <text x="680" y="145" font-family="Arial" font-size="11" text-anchor="left">Context Steps</text>
  
  <rect x="650" y="160" width="20" height="20" rx="3" ry="3" fill="#c5e1a5" stroke="#558b2f" stroke-width="1"/>
  <text x="680" y="175" font-family="Arial" font-size="11" text-anchor="left">Processing</text>
  
  <rect x="650" y="190" width="20" height="20" rx="3" ry="3" fill="#d1c4e9" stroke="#4527a0" stroke-width="1"/>
  <text x="680" y="205" font-family="Arial" font-size="11" text-anchor="left">Retrieval</text>
  
  <rect x="650" y="220" width="20" height="20" rx="3" ry="3" fill="#ffcdd2" stroke="#c62828" stroke-width="1"/>
  <text x="680" y="235" font-family="Arial" font-size="11" text-anchor="left">Generation</text>
</svg>
